<?xml version="1.0" encoding="UTF-8" standalone="no"?>
<!DOCTYPE svg PUBLIC "-//W3C//DTD SVG 1.1//EN" "http://www.w3.org/Graphics/SVG/1.1/DTD/svg11.dtd">
<svg width="100%" height="100%" viewBox="0 0 32 32" version="1.1" xmlns="http://www.w3.org/2000/svg" xmlns:xlink="http://www.w3.org/1999/xlink" xml:space="preserve" xmlns:serif="http://www.serif.com/" style="fill-rule:evenodd;clip-rule:evenodd;stroke-linejoin:round;stroke-miterlimit:2;">
    <g transform="matrix(1,0,0,1,3.10862e-15,0.0736453)">
        <g id="favicon" transform="matrix(1.14286,0,0,1.14286,-2.28571,-2.29143)">
            <g id="background" transform="matrix(1.01148,0,0,1.37914,-0.851237,-6.74072)">
                <path d="M30.501,11.37C30.501,8.569 27.4,6.295 23.581,6.295L9.739,6.295C5.92,6.295 2.819,8.569 2.819,11.37L2.819,21.522C2.819,24.323 5.92,26.597 9.739,26.597L23.581,26.597C27.4,26.597 30.501,24.323 30.501,21.522L30.501,11.37Z" style="fill:rgb(254,251,235);"/>
            </g>
            <g id="paw" transform="matrix(1,0,0,1,-0.794059,-1.84203)">
                <g transform="matrix(1,0,0,1,-0.510342,-0.61887)">
                    <circle cx="8.683" cy="15.993" r="2.418" style="fill:rgb(39,39,42);"/>
                </g>
                <g transform="matrix(1,0,0,1,4.70736,-4.82674)">
                    <circle cx="8.683" cy="15.993" r="2.418" style="fill:rgb(39,39,42);"/>
                </g>
                <g transform="matrix(1,0,0,1,11.6918,-4.8138)">
                    <circle cx="8.683" cy="15.993" r="2.418" style="fill:rgb(39,39,42);"/>
                </g>
                <g transform="matrix(1,0,0,1,16.7328,-0.609587)">
                    <circle cx="8.683" cy="15.993" r="2.418" style="fill:rgb(39,39,42);"/>
                </g>
                <g transform="matrix(1,0,0,1,0.0924529,-0.0174681)">
                    <path d="M16.561,15.072C14.006,15.163 8.431,18.125 9.502,23.449C9.485,23.537 10.393,26.892 16.288,26.827C22.184,26.763 23.636,24.196 24.031,23.316C24.648,21.942 23.184,15.05 16.561,15.072Z" style="fill:rgb(39,39,42);"/>
                </g>
            </g>
        </g>
    </g>
</svg>
